<?xml version="1.0" encoding="utf-8"?>
<!-- Generator: Adobe Illustrator 22.1.0, SVG Export Plug-In . SVG Version: 6.00 Build 0)  -->
<svg version="1.1" id="Слой_1" xmlns="http://www.w3.org/2000/svg" xmlns:xlink="http://www.w3.org/1999/xlink" x="0px" y="0px"
	 viewBox="0 0 1002.1 1002.1" style="enable-background:new 0 0 1002.1 1002.1;" xml:space="preserve">
<style type="text/css">
	.st0{fill:#E5713E;}
</style>
<path class="st0" d="M155.5,463.4c0,0-1.3-0.2-6.7,0.7c-5.4,0.8-13.5,2.7-13.5,2.7l-14.1,8c-9.6,4.1-19.2,8-28.9,11.8l-5.8,4.8
	l30.2-4.6c5.7-3.5,13.5-4.6,13.5-4.6l5.5-2.1c5.6-2.1,28.8-9.2,28.8-9.2s0.4-4,5.8-4.8c5.4-0.8,1.5-1.2,8.4-4.5
	c11.1-5.2,22.2-10.3,33.3-15.4l3.8-2.3l5.7-3.4l5.9-3.5l-15.3,0.3L155.5,463.4L155.5,463.4z M256.9,395l-46.4,16.9
	c0,0,12.9-6.5,17.1-11.6c4.2-5.1,25.6-10.7,25.6-10.7l24.4-13.5l40.6-20.6l16.2-7.2l30.9-11.8c0,0,14.8-5.9,21.6-9.6
	c6.7-3.7,6.7-3.7,10.8-6.1c4-2.5,5.4-2.4,5.4-2.4l4.2-2.5c0,0,8-2.3,2.4,4.1c-5.6,6.3,0,0-5.5,3.7c-5.4,3.7-19.1,12.4-19.1,12.4
	S364,339,355.9,344c-8.2,4.9-7,7.6-12.5,11.3c-5.4,3.7-17.5,7.1-17.5,7.1l-27.2,14.6c-27.1,14.7-24.4,13.5-32.4,15.7L256.9,395
	L256.9,395z M665.3,481.2c0.8-0.1,1.6-0.3,2.4-0.4c-9.6,8-20.9,12.5-20.9,12.5l-56.2,34.9l-70.8,33.8L494,576.8l-19.1,8.8
	c0,0-30.5,18.5-45.6,24.8c-15.1,6.3-15,4.8-15,4.8s-7-2.1-15.8-1.2s-22-1.4-34,0.7c-11.8,2.1-11.4-3.7-11.4-3.7l-1.2-4.5l16.4-3.3
	l7.3,0.5c7.3,0.5,4.5-1.2,4.5-1.2l7.7-5.4l31.9-16.8c0,0,58-13.6,65.6-16c5.8-2,11.5-4.2,17.1-6.6c6.2-2.5,11.5-4.7,11.5-4.7
	l18.3-10.4l4.9-2.1l7.2-2.9c0,0,18-6.1,22.5-8.8c4.6-2.6,6.2-4,6.2-4s6.2-5.4,32-18.4l6.2-4c0,0,19.8-11.8,23.1-16
	C636.6,483.4,647.8,484.2,665.3,481.2L665.3,481.2z M816.8,561.8l3.9-1.7C836.1,551.7,816.8,561.8,816.8,561.8z"/>
<path class="st0" d="M831,527.2l63.1-46.1l-25.8,59.3l-9.4,5.8l-6.2,3.9c0,0-33.6,21.3-44.9,27.1c-11.4,5.8-23.1,16.1-23.1,16.1
	s-38.3,12.7-47.3,16.5l-9,3.8c0,0-22.9,24-32.1,30l-90,18l49.4-37.9c0,0,18.2-7.5,47.6-20.9l23-4.1c0,0,13.4-13.2,22.4-14.8
	c8.9-1.6,11.1-1.4,11.1-1.4s-5.6,1,37.8-22.4C805.8,555.5,819.9,530.7,831,527.2z M265.2,596l-21,3.4c-29.5,5.3-44,17-44,17
	l-91.1,19.4c0,0-18.1,2.4-25.2,7.4c-7.2,5-13.8,4.6-13.8,4.6s18.3-21.6,27.7-26.4c9.4-4.9-6.1-5.8,32.2-10.6
	c38.3-4.8,71.2-20.7,71.2-20.7s14-6.4,23.4-11.2c10.9-5.7,22.5-9.8,34.6-12.2c13.7-2.7,122.6-44.5,129.4-45.9l6.8-1.4l29.5-5.3
	l-29,27.5l-21.5,4.7c0,0-13.2,5.3-20.2,8.4c-7,3.2-20.6,6-20.6,6s1.7,3.4-6.1,6.3l-11.6,5.4c-6,1.9-11.6,4.6-27.5,10.8
	C279.6,586.5,265.2,596,265.2,596L265.2,596z"/>
<path class="st0" d="M907.8,470.4l-1.2-4.5l-0.8-10.3l-1.1-4.5c0,0-1.2-4.5,0.7-10.3c1.9-5.7,4.7-4,3.6-10c-1.1-6,0.6-7.3-1.8-16.3
	c-0.4-1.5-0.8-3.1-1.3-4.6l-8.6,2.2l2.1-27.3l-5.8-8l-7.1-3.4l-4.3-1.8l-0.2-1.9l-18.2,6.8l17-17.7l-0.4-3.5l-1.1-4.5l-2.3-17.6
	l-7.8-3.4l5.6-20.3c0.9-13.2-2.8-27.2-2.8-27.2s-2.2-16.7-13.4-13.1c-3.8,1.3-7.9,2.4-11.3,3.4c-4.4,0.6-10.6,2-18.8,4.5
	c-18.7,5.6-32.7,11.7-42.4,15.5c-4.4,1.8-18,6.8-18,6.8l32.4-0.9l32.5-6.5l-2.5,17.3c-8.5,5.7-21.8,12.9-21.8,12.9l-13.2,7.5
	l-20.6,15c-27,15.5-65,37.2-75.9,42.2c-17.3,8-29.8,16.3-29.8,16.3s-4.9,7.5-44.4,13.8l-9.4,9.5c-6.4,6.4-12.6,9.5-17.5,17.4
	c-4.7,7.9-19.5,8.9-25.9,15.2c-4.9,4.9-7,9.9-7.6,11.8c-5.2,2-10.3,4.6-15,7.6c-0.4,0.2-14.7,7.6-15.1,7.8l-23.3,20.9l-16.6,4.8
	c-25.1,4.1-15,4.9-21.1,8.9c-6.2,3.9-7.9,8.2-7.9,8.2s4.3,0.3,9-3.8c4.7-4.1,16.5-6.2,16.5-6.2l59.8-16.4c0,0,9.4-9.7,28.8-14.2
	l7.5-7.4l7.7-2.5c0,0,8.6-8.7,15.8-9.5c7.2-0.8,9.5-4.7,9.5-4.7l7.9-4.7l12-12.6c1.9-0.9,7,0.6,11.6-1.9l13.3-0.6l13.8-9.3l3.2-2.4
	c4.4-2.7,8.6-4.8,10.8-4.8c6.3,0,20.5-12.7,20.5-12.7l4.8-3.2l10.7-2.9l49.8-20l18.2-9l8.4-0.7l-1.5,7.1l-4.6,2.6l-16.6,13.7
	c0.5,2-10.5,15-19.8,17.6c-10-0.5-12.7,0.6-12.7,0.6c-12.8,13.8-51,37.8-53.8,41.4c-1.7,2.2-2.2,3-2.2,3l-0.7,1.7
	c9.1-3.8,49.8-23.7,52.2-24.3c4.5-1.1,1.6-2.8,12.1-5l10.4-2.3l38.9-11.9l21.4-9.3c0.5,3.9,1.2,9.9,1.8,17.6l-2.3,7.8L816,483
	l-2.5-7.5l-4.9-13.6c0,0-0.1,1.5-4.8,5.5c-4.7,4.1-11.9,3.6-16.8,9.1c-4.8,5.6-2.7-3.1-4.8,5.6c-2.1,8.7-2.4,13-6.4,8.3l-4.1-4.7
	c0,0-1.8-16.3-28.7-9.3c-26.8,6.9-53,25.7-53,25.7l-7.3,20.1l-8.2,1.3c0,0,0.5,4.4-8.5,6.7c-9,2.4-25.1,23-25.1,23
	s8.1-11.2,2.4-13.1c-5.7-1.9,0.2-2.9-5.7-1.9c-5.9,1.1-0.8-8.9-16.4,4.7c-15.6,13.6-0.2,3-15.6,13.6c-15.4,10.7-24.3,13-41.3,25
	c-16.9,12.1-22.9,13.1-34.9,16.7c-10,3-44.8,11.4-56,14.1c-1.5,1-3.1,2.2-5.3,3.7c-23.1,16-29.3,21.5-29.3,21.5s-4.2-3.2-10-3.6
	c-5.8-0.4-40.8-2.9-40.8-2.9l-28.3,27.4c-9.1,3.8-73.5,24.3-73.5,24.3l-4.9,9.7c-0.2,0-1,0.3-3.2,1.5c-4.6,2.6,58.9-3.2,75.4-9.4
	c16.5-6.2,85.5-10.3,91.7-15.5c3.1-0.5,6.9-1.1,10.5-1.7l20.9-8.6c0,0,67.8-22.3,49.4-12.8c-17.8,9.1-76.1,51.8-86.9,58.4
	c3.6,0.1,7.5,0.3,11.1,0.4c17.4-5,96.1-36.1,95.9-36.1l75.9-40.1c0,0,16.8-9.7,28.2-17c11.3-7.4,25.3-14.5,41.9-18.7
	c16.5-4.3,135.7-60.6,143.9-62.7c8.2-2.1,20.8-14.7,20.8-14.7l35.3-3.5l13.3-3.3c4.8-6.2,7.8-17,7.8-17l-7.5-15.7
	C907.2,472.5,907.8,470.4,907.8,470.4L907.8,470.4z M339.9,351.3l-20.2,9l-7.8,18.1l-27,18.1l-32.6-1.1L339.9,351.3z M728.1,315.3
	l-6.9,3.9c0,0-2.2-0.2-9,3.8c-6.9,3.9-6.2,1.6-17.6,7.4c-11.4,5.8-34.8,13.6-34.8,13.6l-51.1,19.7l-29.2,11.9l-56.3,20.1l-15.7,8.3
	l5.3-16.3c0-1.1,0.2-2.2,0.6-3.3c1-3.5-5.1-29.8-5.1-29.8l-5.9-4.1L501,350l-8.4,4.1l7.5-13.7l-0.3-2.4l-0.7-2.7l-0.7-3.6l-1.6-1.2
	c-1.9-5-3.9-11.6-3.7-15.8c0.4-8,0.9-14.1,0.9-14.1l-0.2-6.4c0,0-1.5-10-8.2-7.7c-2.3,0.8-4.7,1.6-6.8,2.2
	c-2.6,0.5-6.4,1.3-11.3,2.9c-11.2,3.7-22.3,8.2-28.2,10.7l-4.1,1.7l11.8,2.6l20.2-4.1l2,8.5c-4.2,2.8-8.6,5.5-13,8.1l-7.8,4.7
	c0,0-10.2,7.7-20.7,15.8c-11.9,6.8-26.3,15-36.2,20.4c-1,0.3-1.9,0.8-2.7,1.4c-2.3,1.3-4.6,2.5-7,3.6c-11.1,5-19.1,10.4-19.1,10.4
	s-3.1,4.8-28.4,8.9l-6.1,6.1c-4,4-8.1,6.1-11.1,11.1c-3,5.1-8.2,7.6-12.3,11.6c-4,4.1-4.9,7.5-4.9,7.5l-28.4,13.5
	c-0.6,0.1-1.4,0.3-2,0.4c-8.1,2.8-6.8,1.7-12.6,5.6l-7.8,10.5c0,0,5.8-2,8.5-4.5c2.8-2.5,12.2-4.7,12.2-4.7l35.7-10.7
	c0,0,3.3-5.2,14.9-8.2l4.6-4.7l0.1,0c4.6-0.5,6.1-3,6.1-3l5-3l0.8-2c5.2-2.7,11.4-6,14.2-7.3l0.1,0l8.4-0.3c0,0,5.5-4.2,10.5-7.3
	l0.7,0.1l3.4-2.4c1.3-0.6,16.3-9.1,16.3-9.1l3.1-2l21.2-8l11.1-5.1l-4.2,3.5l-11.2,13.6l15.7,14.3l-27,15l-15.8,2.3v9l-13.4,13.5
	l-15.8,16.9c0,0-32,14.9-42,22.4c-10.1,7.5-13.6,8.2-20.8,10.5c-5.9,2-26.8,7.5-33.5,9.2c-0.8,0.7-1.9,1.4-3.1,2.4
	c-13.7,9.9-14,8.5-14,8.5s-5.9,2.8-9.5,2.7c-3.5-0.1-22,0.6-22,0.6l-19.2,15.1c-5.4,2.4-43.9,15.6-43.9,15.6l-2.8,5.9
	c-0.7,0.2-1.4,0.5-2,1c-2.6,1.6,30.3-5.7,30.3-5.7s5.1,2.9,15.1-1c9.9-4,40.3-11.9,44-15c1.8-0.3,15.1,3.7,17.4,3.3l12.5-5.5
	l87.2-20.2c0,0,10.1-6.1,16.8-10.6c6.7-4.6,15-5.8,25-8.6c5.5-1.6,32-14.6,55.4-26.2l37.2-22.5l19.2-0.1c6-2.3,14.4-6.7,44-21.9
	c45.6-23.3,45.6-26.5,45.6-26.5s20.2-5.2,29.4-11.1c9.2-6,13.2-9.6,26.9-17.5c13.7-7.8,43.3-13,43.3-13s23-13.8,32.1-19.8l9.2-6
	C741.5,311.8,728.1,315.3,728.1,315.3L728.1,315.3z M822.2,594.8l50-34.7l30.9-23.9l-1.6,12.3l-12,19.3L822.2,594.8L822.2,594.8z"/>
</svg>
